<?xml version="1.0" encoding="UTF-8" standalone="no"?>
<!DOCTYPE svg PUBLIC "-//W3C//DTD SVG 1.1//EN"
 "http://www.w3.org/Graphics/SVG/1.1/DTD/svg11.dtd">
<!-- Generated by graphviz version 2.38.0 (20140413.2041)
 -->
<!-- Title: controllers_diagram Pages: 1 -->
<svg width="582pt" height="571pt"
 viewBox="0.00 0.00 582.34 571.00" xmlns="http://www.w3.org/2000/svg" xmlns:xlink="http://www.w3.org/1999/xlink">
<g id="graph0" class="graph" transform="scale(1 1) rotate(0) translate(259.891 327.5)">
<title>controllers_diagram</title>
<polygon fill="none" stroke="none" points="-259.891,243.5 -259.891,-327.5 322.45,-327.5 322.45,243.5 -259.891,243.5"/>
<!-- _diagram_info -->
<g id="node1" class="node"><title>_diagram_info</title>
<text text-anchor="start" x="119.55" y="52.9" font-family="Times,serif" font-size="13.00">Controllers diagram</text>
<text text-anchor="start" x="119.55" y="65.9" font-family="Times,serif" font-size="13.00">Date: Jan 07 2016 &#45; 13:11</text>
<text text-anchor="start" x="119.55" y="78.9" font-family="Times,serif" font-size="13.00">Migration version: 20151104000145</text>
<text text-anchor="start" x="119.55" y="91.9" font-family="Times,serif" font-size="13.00">Generated by RailRoady 1.4.2</text>
<text text-anchor="start" x="119.55" y="104.9" font-family="Times,serif" font-size="13.00">http://railroady.prestonlee.com</text>
</g>
<!-- ApplicationController -->
<g id="node2" class="node"><title>ApplicationController</title>
<path fill="none" stroke="black" d="M-99.9658,95C-99.9658,95 73.9658,95 73.9658,95 79.9658,95 85.9658,89 85.9658,83 85.9658,83 85.9658,-53 85.9658,-53 85.9658,-59 79.9658,-65 73.9658,-65 73.9658,-65 -99.9658,-65 -99.9658,-65 -105.966,-65 -111.966,-59 -111.966,-53 -111.966,-53 -111.966,83 -111.966,83 -111.966,89 -105.966,95 -99.9658,95"/>
<text text-anchor="middle" x="-13" y="-49.8" font-family="Times,serif" font-size="14.00">ApplicationController</text>
<polyline fill="none" stroke="black" points="-111.966,-43 85.9658,-43 "/>
<text text-anchor="start" x="-103.966" y="-27.8" font-family="Times,serif" font-size="14.00">mimes_for_respond_to</text>
<text text-anchor="start" x="-103.966" y="-13.8" font-family="Times,serif" font-size="14.00">mimes_for_respond_to=</text>
<text text-anchor="start" x="-103.966" y="0.2" font-family="Times,serif" font-size="14.00">mimes_for_respond_to?</text>
<text text-anchor="start" x="-103.966" y="14.2" font-family="Times,serif" font-size="14.00">responder</text>
<text text-anchor="start" x="-103.966" y="28.2" font-family="Times,serif" font-size="14.00">responder=</text>
<text text-anchor="start" x="-103.966" y="42.2" font-family="Times,serif" font-size="14.00">responder?</text>
<polyline fill="none" stroke="black" points="-111.966,49 85.9658,49 "/>
<polyline fill="none" stroke="black" points="-111.966,73 85.9658,73 "/>
<text text-anchor="start" x="-103.966" y="88.2" font-family="Times,serif" font-size="14.00">configure_permitted_parameters</text>
</g>
<!-- ClickDataController -->
<g id="node3" class="node"><title>ClickDataController</title>
<path fill="none" stroke="black" d="M107.848,-97C107.848,-97 214.152,-97 214.152,-97 220.152,-97 226.152,-103 226.152,-109 226.152,-109 226.152,-245 226.152,-245 226.152,-251 220.152,-257 214.152,-257 214.152,-257 107.848,-257 107.848,-257 101.848,-257 95.8481,-251 95.8481,-245 95.8481,-245 95.8481,-109 95.8481,-109 95.8481,-103 101.848,-97 107.848,-97"/>
<text text-anchor="middle" x="161" y="-241.8" font-family="Times,serif" font-size="14.00">ClickDataController</text>
<polyline fill="none" stroke="black" points="95.8481,-235 226.152,-235 "/>
<text text-anchor="start" x="103.848" y="-219.8" font-family="Times,serif" font-size="14.00">create</text>
<text text-anchor="start" x="103.848" y="-205.8" font-family="Times,serif" font-size="14.00">destroy</text>
<text text-anchor="start" x="103.848" y="-191.8" font-family="Times,serif" font-size="14.00">index</text>
<text text-anchor="start" x="103.848" y="-177.8" font-family="Times,serif" font-size="14.00">show</text>
<text text-anchor="start" x="103.848" y="-163.8" font-family="Times,serif" font-size="14.00">update</text>
<polyline fill="none" stroke="black" points="95.8481,-157 226.152,-157 "/>
<polyline fill="none" stroke="black" points="95.8481,-133 226.152,-133 "/>
<text text-anchor="start" x="103.848" y="-117.8" font-family="Times,serif" font-size="14.00">click_data_params</text>
<text text-anchor="start" x="103.848" y="-103.8" font-family="Times,serif" font-size="14.00">set_click_data</text>
</g>
<!-- CommentsController -->
<g id="node4" class="node"><title>CommentsController</title>
<path fill="none" stroke="black" d="M-228.107,239C-228.107,239 -117.893,239 -117.893,239 -111.893,239 -105.893,233 -105.893,227 -105.893,227 -105.893,147 -105.893,147 -105.893,141 -111.893,135 -117.893,135 -117.893,135 -228.107,135 -228.107,135 -234.107,135 -240.107,141 -240.107,147 -240.107,147 -240.107,227 -240.107,227 -240.107,233 -234.107,239 -228.107,239"/>
<text text-anchor="middle" x="-173" y="150.2" font-family="Times,serif" font-size="14.00">CommentsController</text>
<polyline fill="none" stroke="black" points="-240.107,157 -105.893,157 "/>
<text text-anchor="start" x="-232.107" y="172.2" font-family="Times,serif" font-size="14.00">create</text>
<text text-anchor="start" x="-232.107" y="186.2" font-family="Times,serif" font-size="14.00">upvote</text>
<polyline fill="none" stroke="black" points="-240.107,193 -105.893,193 "/>
<polyline fill="none" stroke="black" points="-240.107,217 -105.893,217 "/>
<text text-anchor="start" x="-232.107" y="232.2" font-family="Times,serif" font-size="14.00">comment_params</text>
</g>
<!-- PostsController -->
<g id="node5" class="node"><title>PostsController</title>
<path fill="none" stroke="black" d="M-163.559,-177C-163.559,-177 -84.4414,-177 -84.4414,-177 -78.4414,-177 -72.4414,-183 -72.4414,-189 -72.4414,-189 -72.4414,-311 -72.4414,-311 -72.4414,-317 -78.4414,-323 -84.4414,-323 -84.4414,-323 -163.559,-323 -163.559,-323 -169.559,-323 -175.559,-317 -175.559,-311 -175.559,-311 -175.559,-189 -175.559,-189 -175.559,-183 -169.559,-177 -163.559,-177"/>
<text text-anchor="middle" x="-124" y="-307.8" font-family="Times,serif" font-size="14.00">PostsController</text>
<polyline fill="none" stroke="black" points="-175.559,-301 -72.4414,-301 "/>
<text text-anchor="start" x="-167.559" y="-285.8" font-family="Times,serif" font-size="14.00">create</text>
<text text-anchor="start" x="-167.559" y="-271.8" font-family="Times,serif" font-size="14.00">destroy</text>
<text text-anchor="start" x="-167.559" y="-257.8" font-family="Times,serif" font-size="14.00">index</text>
<text text-anchor="start" x="-167.559" y="-243.8" font-family="Times,serif" font-size="14.00">show</text>
<text text-anchor="start" x="-167.559" y="-229.8" font-family="Times,serif" font-size="14.00">upvote</text>
<polyline fill="none" stroke="black" points="-175.559,-223 -72.4414,-223 "/>
<polyline fill="none" stroke="black" points="-175.559,-199 -72.4414,-199 "/>
<text text-anchor="start" x="-167.559" y="-183.8" font-family="Times,serif" font-size="14.00">post_params</text>
</g>
<!-- TokensController -->
<g id="node6" class="node"><title>TokensController</title>
<path fill="none" stroke="black" d="M-243.891,-1C-243.891,-1 -154.109,-1 -154.109,-1 -148.109,-1 -142.109,-7 -142.109,-13 -142.109,-13 -142.109,-119 -142.109,-119 -142.109,-125 -148.109,-131 -154.109,-131 -154.109,-131 -243.891,-131 -243.891,-131 -249.891,-131 -255.891,-125 -255.891,-119 -255.891,-119 -255.891,-13 -255.891,-13 -255.891,-7 -249.891,-1 -243.891,-1"/>
<text text-anchor="middle" x="-199" y="-115.8" font-family="Times,serif" font-size="14.00">TokensController</text>
<polyline fill="none" stroke="black" points="-255.891,-109 -142.109,-109 "/>
<text text-anchor="start" x="-247.891" y="-93.8" font-family="Times,serif" font-size="14.00">create</text>
<text text-anchor="start" x="-247.891" y="-79.8" font-family="Times,serif" font-size="14.00">index</text>
<text text-anchor="start" x="-247.891" y="-65.8" font-family="Times,serif" font-size="14.00">show</text>
<text text-anchor="start" x="-247.891" y="-51.8" font-family="Times,serif" font-size="14.00">update</text>
<polyline fill="none" stroke="black" points="-255.891,-45 -142.109,-45 "/>
<text text-anchor="start" x="-247.891" y="-29.8" font-family="Times,serif" font-size="14.00">generate_token</text>
<polyline fill="none" stroke="black" points="-255.891,-23 -142.109,-23 "/>
<text text-anchor="start" x="-247.891" y="-7.8" font-family="Times,serif" font-size="14.00">token_params</text>
</g>
<!-- UsersController -->
<g id="node7" class="node"><title>UsersController</title>
<path fill="none" stroke="black" d="M-35.7139,-97C-35.7139,-97 45.7139,-97 45.7139,-97 51.7139,-97 57.7139,-103 57.7139,-109 57.7139,-109 57.7139,-259 57.7139,-259 57.7139,-265 51.7139,-271 45.7139,-271 45.7139,-271 -35.7139,-271 -35.7139,-271 -41.7139,-271 -47.7139,-265 -47.7139,-259 -47.7139,-259 -47.7139,-109 -47.7139,-109 -47.7139,-103 -41.7139,-97 -35.7139,-97"/>
<text text-anchor="middle" x="5" y="-255.8" font-family="Times,serif" font-size="14.00">UsersController</text>
<polyline fill="none" stroke="black" points="-47.7139,-249 57.7139,-249 "/>
<text text-anchor="start" x="-39.7139" y="-233.8" font-family="Times,serif" font-size="14.00">create</text>
<text text-anchor="start" x="-39.7139" y="-219.8" font-family="Times,serif" font-size="14.00">destroy</text>
<text text-anchor="start" x="-39.7139" y="-205.8" font-family="Times,serif" font-size="14.00">index</text>
<text text-anchor="start" x="-39.7139" y="-191.8" font-family="Times,serif" font-size="14.00">password</text>
<text text-anchor="start" x="-39.7139" y="-177.8" font-family="Times,serif" font-size="14.00">show</text>
<text text-anchor="start" x="-39.7139" y="-163.8" font-family="Times,serif" font-size="14.00">update</text>
<polyline fill="none" stroke="black" points="-47.7139,-157 57.7139,-157 "/>
<polyline fill="none" stroke="black" points="-47.7139,-133 57.7139,-133 "/>
<text text-anchor="start" x="-39.7139" y="-117.8" font-family="Times,serif" font-size="14.00">set_user</text>
<text text-anchor="start" x="-39.7139" y="-103.8" font-family="Times,serif" font-size="14.00">user_params</text>
</g>
</g>
</svg>
