<?xml version="1.0" encoding="UTF-8" standalone="no"?>
<!DOCTYPE svg PUBLIC "-//W3C//DTD SVG 1.1//EN"
 "http://www.w3.org/Graphics/SVG/1.1/DTD/svg11.dtd">
<!-- Generated by graphviz version 2.38.0 (20140413.2041)
 -->
<!-- Title: models_diagram Pages: 1 -->
<svg width="362pt" height="225pt"
 viewBox="0.00 0.00 362.41 225.00" xmlns="http://www.w3.org/2000/svg" xmlns:xlink="http://www.w3.org/1999/xlink">
<g id="graph0" class="graph" transform="scale(1 1) rotate(0) translate(4 221)">
<title>models_diagram</title>
<polygon fill="none" stroke="none" points="-4,4 -4,-221 358.41,-221 358.41,4 -4,4"/>
<!-- _diagram_info -->
<g id="node1" class="node"><title>_diagram_info</title>
<text text-anchor="start" x="8" y="-202.6" font-family="Times,serif" font-size="13.00">Models diagram</text>
<text text-anchor="start" x="8" y="-189.6" font-family="Times,serif" font-size="13.00">Date: Jan 07 2016 &#45; 13:11</text>
<text text-anchor="start" x="8" y="-176.6" font-family="Times,serif" font-size="13.00">Migration version: 20151104000145</text>
<text text-anchor="start" x="8" y="-163.6" font-family="Times,serif" font-size="13.00">Generated by RailRoady 1.4.2</text>
<text text-anchor="start" x="8" y="-150.6" font-family="Times,serif" font-size="13.00">http://railroady.prestonlee.com</text>
</g>
<!-- ClickData -->
<g id="node2" class="node"><title>ClickData</title>
<ellipse fill="none" stroke="black" cx="308.45" cy="-18" rx="45.92" ry="18"/>
<text text-anchor="middle" x="308.45" y="-13.8" font-family="Times,serif" font-size="14.00">ClickData</text>
</g>
<!-- Comment -->
<g id="node3" class="node"><title>Comment</title>
<ellipse fill="none" stroke="black" cx="181.45" cy="-18" rx="44.9768" ry="18"/>
<text text-anchor="middle" x="181.45" y="-13.8" font-family="Times,serif" font-size="14.00">Comment</text>
</g>
<!-- Comment&#45;&gt;Comment -->
<g id="edge1" class="edge"><title>Comment&#45;&gt;Comment</title>
<path fill="none" stroke="#7f55cf" d="M221.216,-31.4986C234.152,-31.4084 244.438,-26.9088 244.438,-18 244.438,-9.51141 235.099,-5.02594 223.028,-4.54359"/>
<ellipse fill="none" stroke="#7f55cf" cx="216.879" cy="-31.2313" rx="4" ry="4"/>
<polygon fill="#7f55cf" stroke="#7f55cf" points="222.876,-4.55055 212.678,-0.519838 217.881,-4.78277 212.887,-5.01498 212.887,-5.01498 212.887,-5.01498 217.881,-4.78277 213.096,-9.51013 222.876,-4.55055 222.876,-4.55055"/>
</g>
<!-- Post -->
<g id="node4" class="node"><title>Post</title>
<ellipse fill="none" stroke="black" cx="206.45" cy="-90" rx="27" ry="18"/>
<text text-anchor="middle" x="206.45" y="-85.8" font-family="Times,serif" font-size="14.00">Post</text>
</g>
<!-- Post&#45;&gt;Comment -->
<g id="edge2" class="edge"><title>Post&#45;&gt;Comment</title>
<path fill="none" stroke="#9f2ca9" d="M197.799,-64.7779C195.573,-58.544 193.166,-51.8046 190.901,-45.4634"/>
<ellipse fill="none" stroke="#9f2ca9" cx="199.18" cy="-68.644" rx="4.00001" ry="4.00001"/>
<polygon fill="#9f2ca9" stroke="#9f2ca9" points="190.869,-45.3736 191.743,-34.4427 189.187,-40.6649 187.505,-35.9562 187.505,-35.9562 187.505,-35.9562 189.187,-40.6649 183.268,-37.4698 190.869,-45.3736 190.869,-45.3736"/>
</g>
<!-- Token -->
<g id="node5" class="node"><title>Token</title>
<ellipse fill="none" stroke="black" cx="295.45" cy="-90" rx="32.1635" ry="18"/>
<text text-anchor="middle" x="295.45" y="-85.8" font-family="Times,serif" font-size="14.00">Token</text>
</g>
<!-- Token&#45;&gt;ClickData -->
<g id="edge3" class="edge"><title>Token&#45;&gt;ClickData</title>
<path fill="none" stroke="#8428ce" d="M300.095,-63.9868C301.161,-58.2493 302.299,-52.1211 303.381,-46.2929"/>
<ellipse fill="none" stroke="#8428ce" cx="299.327" cy="-68.1222" rx="4.00001" ry="4.00001"/>
<polygon fill="#8428ce" stroke="#8428ce" points="303.415,-46.1072 309.666,-37.097 304.328,-41.1912 305.241,-36.2753 305.241,-36.2753 305.241,-36.2753 304.328,-41.1912 300.817,-35.4536 303.415,-46.1072 303.415,-46.1072"/>
</g>
<!-- User -->
<g id="node6" class="node"><title>User</title>
<ellipse fill="none" stroke="black" cx="251.45" cy="-180.5" rx="27" ry="18"/>
<text text-anchor="middle" x="251.45" y="-176.3" font-family="Times,serif" font-size="14.00">User</text>
</g>
<!-- User&#45;&gt;Post -->
<g id="edge4" class="edge"><title>User&#45;&gt;Post</title>
<path fill="none" stroke="#a3f5e8" d="M239.569,-156.134C233.355,-143.914 225.74,-128.938 219.379,-116.428"/>
<ellipse fill="none" stroke="#a3f5e8" cx="241.383" cy="-159.702" rx="4.00002" ry="4.00002"/>
<polygon fill="#a3f5e8" stroke="#a3f5e8" points="219.336,-116.343 218.815,-105.389 217.07,-111.886 214.803,-107.429 214.803,-107.429 214.803,-107.429 217.07,-111.886 210.792,-109.469 219.336,-116.343 219.336,-116.343"/>
</g>
<!-- User&#45;&gt;Token -->
<g id="edge5" class="edge"><title>User&#45;&gt;Token</title>
<path fill="none" stroke="#0af1bf" d="M263.275,-155.715C269.267,-143.664 276.549,-129.016 282.669,-116.706"/>
<ellipse fill="none" stroke="#0af1bf" cx="261.301" cy="-159.686" rx="4.00002" ry="4.00002"/>
<polygon fill="#0af1bf" stroke="#0af1bf" points="282.83,-116.383 291.311,-109.432 285.056,-111.906 287.282,-107.429 287.282,-107.429 287.282,-107.429 285.056,-111.906 283.252,-105.426 282.83,-116.383 282.83,-116.383"/>
</g>
</g>
</svg>
