<?xml version="1.0" encoding="UTF-8" standalone="no"?>
<!DOCTYPE svg PUBLIC "-//W3C//DTD SVG 1.1//EN"
 "http://www.w3.org/Graphics/SVG/1.1/DTD/svg11.dtd">
<!-- Generated by graphviz version 2.38.0 (20140413.2041)
 -->
<!-- Title: models_diagram Pages: 1 -->
<svg width="656pt" height="579pt"
 viewBox="0.00 0.00 656.31 579.00" xmlns="http://www.w3.org/2000/svg" xmlns:xlink="http://www.w3.org/1999/xlink">
<g id="graph0" class="graph" transform="scale(1 1) rotate(0) translate(4 575)">
<title>models_diagram</title>
<polygon fill="none" stroke="none" points="-4,4 -4,-575 652.312,-575 652.312,4 -4,4"/>
<!-- _diagram_info -->
<g id="node1" class="node"><title>_diagram_info</title>
<text text-anchor="start" x="8" y="-479.6" font-family="Times,serif" font-size="13.00">Models diagram</text>
<text text-anchor="start" x="8" y="-466.6" font-family="Times,serif" font-size="13.00">Date: Jan 07 2016 &#45; 13:11</text>
<text text-anchor="start" x="8" y="-453.6" font-family="Times,serif" font-size="13.00">Migration version: 20151104000145</text>
<text text-anchor="start" x="8" y="-440.6" font-family="Times,serif" font-size="13.00">Generated by RailRoady 1.4.2</text>
<text text-anchor="start" x="8" y="-427.6" font-family="Times,serif" font-size="13.00">http://railroady.prestonlee.com</text>
</g>
<!-- ClickData -->
<g id="node2" class="node"><title>ClickData</title>
<path fill="none" stroke="black" d="M412.587,-0.5C412.587,-0.5 636.312,-0.5 636.312,-0.5 642.312,-0.5 648.312,-6.5 648.312,-12.5 648.312,-12.5 648.312,-144.5 648.312,-144.5 648.312,-150.5 642.312,-156.5 636.312,-156.5 636.312,-156.5 412.587,-156.5 412.587,-156.5 406.587,-156.5 400.587,-150.5 400.587,-144.5 400.587,-144.5 400.587,-12.5 400.587,-12.5 400.587,-6.5 406.587,-0.5 412.587,-0.5"/>
<text text-anchor="middle" x="524.45" y="-141.3" font-family="Times,serif" font-size="14.00">ClickData</text>
<polyline fill="none" stroke="black" points="400.587,-134.5 648.312,-134.5 "/>
<text text-anchor="start" x="408.587" y="-119.3" font-family="Times,serif" font-size="14.00">id :integer</text>
<text text-anchor="start" x="408.587" y="-105.3" font-family="Times,serif" font-size="14.00">x :double precision</text>
<text text-anchor="start" x="408.587" y="-91.3" font-family="Times,serif" font-size="14.00">y :double precision</text>
<text text-anchor="start" x="408.587" y="-77.3" font-family="Times,serif" font-size="14.00">scroll_position :double precision</text>
<text text-anchor="start" x="408.587" y="-63.3" font-family="Times,serif" font-size="14.00">url :character varying(255)</text>
<text text-anchor="start" x="408.587" y="-49.3" font-family="Times,serif" font-size="14.00">created_at :timestamp without time zone</text>
<text text-anchor="start" x="408.587" y="-35.3" font-family="Times,serif" font-size="14.00">updated_at :timestamp without time zone</text>
<text text-anchor="start" x="408.587" y="-21.3" font-family="Times,serif" font-size="14.00">gatilho :character varying(255)</text>
<text text-anchor="start" x="408.587" y="-7.3" font-family="Times,serif" font-size="14.00">token_id :integer</text>
</g>
<!-- Comment -->
<g id="node3" class="node"><title>Comment</title>
<path fill="none" stroke="black" d="M128.587,-14.5C128.587,-14.5 352.312,-14.5 352.312,-14.5 358.312,-14.5 364.312,-20.5 364.312,-26.5 364.312,-26.5 364.312,-130.5 364.312,-130.5 364.312,-136.5 358.312,-142.5 352.312,-142.5 352.312,-142.5 128.587,-142.5 128.587,-142.5 122.587,-142.5 116.587,-136.5 116.587,-130.5 116.587,-130.5 116.587,-26.5 116.587,-26.5 116.587,-20.5 122.587,-14.5 128.587,-14.5"/>
<text text-anchor="middle" x="240.45" y="-127.3" font-family="Times,serif" font-size="14.00">Comment</text>
<polyline fill="none" stroke="black" points="116.587,-120.5 364.312,-120.5 "/>
<text text-anchor="start" x="124.587" y="-105.3" font-family="Times,serif" font-size="14.00">id :integer</text>
<text text-anchor="start" x="124.587" y="-91.3" font-family="Times,serif" font-size="14.00">body :character varying(255)</text>
<text text-anchor="start" x="124.587" y="-77.3" font-family="Times,serif" font-size="14.00">upvotes :integer</text>
<text text-anchor="start" x="124.587" y="-63.3" font-family="Times,serif" font-size="14.00">post_id :integer</text>
<text text-anchor="start" x="124.587" y="-49.3" font-family="Times,serif" font-size="14.00">created_at :timestamp without time zone</text>
<text text-anchor="start" x="124.587" y="-35.3" font-family="Times,serif" font-size="14.00">updated_at :timestamp without time zone</text>
<text text-anchor="start" x="124.587" y="-21.3" font-family="Times,serif" font-size="14.00">user_id :integer</text>
</g>
<!-- Comment&#45;&gt;Comment -->
<g id="edge1" class="edge"><title>Comment&#45;&gt;Comment</title>
<path fill="none" stroke="#ebad36" d="M371.476,-99.627C378.285,-94.4158 382.312,-87.3735 382.312,-78.5 382.312,-70.3509 378.915,-63.7462 373.087,-58.6858"/>
<ellipse fill="none" stroke="#ebad36" cx="367.892" cy="-101.814" rx="4.00002" ry="4.00002"/>
<polygon fill="#ebad36" stroke="#ebad36" points="372.868,-58.5434 366.927,-49.3265 368.673,-55.8227 364.478,-53.1019 364.478,-53.1019 364.478,-53.1019 368.673,-55.8227 362.029,-56.8774 372.868,-58.5434 372.868,-58.5434"/>
</g>
<!-- Post -->
<g id="node4" class="node"><title>Post</title>
<path fill="none" stroke="black" d="M137.587,-193.5C137.587,-193.5 361.312,-193.5 361.312,-193.5 367.312,-193.5 373.312,-199.5 373.312,-205.5 373.312,-205.5 373.312,-295.5 373.312,-295.5 373.312,-301.5 367.312,-307.5 361.312,-307.5 361.312,-307.5 137.587,-307.5 137.587,-307.5 131.587,-307.5 125.587,-301.5 125.587,-295.5 125.587,-295.5 125.587,-205.5 125.587,-205.5 125.587,-199.5 131.587,-193.5 137.587,-193.5"/>
<text text-anchor="middle" x="249.45" y="-292.3" font-family="Times,serif" font-size="14.00">Post</text>
<polyline fill="none" stroke="black" points="125.587,-285.5 373.312,-285.5 "/>
<text text-anchor="start" x="133.587" y="-270.3" font-family="Times,serif" font-size="14.00">id :integer</text>
<text text-anchor="start" x="133.587" y="-256.3" font-family="Times,serif" font-size="14.00">upvotes :integer</text>
<text text-anchor="start" x="133.587" y="-242.3" font-family="Times,serif" font-size="14.00">created_at :timestamp without time zone</text>
<text text-anchor="start" x="133.587" y="-228.3" font-family="Times,serif" font-size="14.00">updated_at :timestamp without time zone</text>
<text text-anchor="start" x="133.587" y="-214.3" font-family="Times,serif" font-size="14.00">user_id :integer</text>
<text text-anchor="start" x="133.587" y="-200.3" font-family="Times,serif" font-size="14.00">text :character varying(255)</text>
</g>
<!-- Post&#45;&gt;Comment -->
<g id="edge2" class="edge"><title>Post&#45;&gt;Comment</title>
<path fill="none" stroke="#65fdba" d="M246.048,-185.251C245.488,-174.674 244.904,-163.64 244.334,-152.861"/>
<ellipse fill="none" stroke="#65fdba" cx="246.266" cy="-189.37" rx="4" ry="4"/>
<polygon fill="#65fdba" stroke="#65fdba" points="244.321,-152.614 248.285,-142.39 244.056,-147.621 243.792,-142.628 243.792,-142.628 243.792,-142.628 244.056,-147.621 239.298,-142.866 244.321,-152.614 244.321,-152.614"/>
</g>
<!-- Token -->
<g id="node5" class="node"><title>Token</title>
<path fill="none" stroke="black" d="M407.587,-200.5C407.587,-200.5 631.312,-200.5 631.312,-200.5 637.312,-200.5 643.312,-206.5 643.312,-212.5 643.312,-212.5 643.312,-288.5 643.312,-288.5 643.312,-294.5 637.312,-300.5 631.312,-300.5 631.312,-300.5 407.587,-300.5 407.587,-300.5 401.587,-300.5 395.587,-294.5 395.587,-288.5 395.587,-288.5 395.587,-212.5 395.587,-212.5 395.587,-206.5 401.587,-200.5 407.587,-200.5"/>
<text text-anchor="middle" x="519.45" y="-285.3" font-family="Times,serif" font-size="14.00">Token</text>
<polyline fill="none" stroke="black" points="395.587,-278.5 643.312,-278.5 "/>
<text text-anchor="start" x="403.587" y="-263.3" font-family="Times,serif" font-size="14.00">id :integer</text>
<text text-anchor="start" x="403.587" y="-249.3" font-family="Times,serif" font-size="14.00">token :character varying(255)</text>
<text text-anchor="start" x="403.587" y="-235.3" font-family="Times,serif" font-size="14.00">user_id :integer</text>
<text text-anchor="start" x="403.587" y="-221.3" font-family="Times,serif" font-size="14.00">created_at :timestamp without time zone</text>
<text text-anchor="start" x="403.587" y="-207.3" font-family="Times,serif" font-size="14.00">updated_at :timestamp without time zone</text>
</g>
<!-- Token&#45;&gt;ClickData -->
<g id="edge3" class="edge"><title>Token&#45;&gt;ClickData</title>
<path fill="none" stroke="#95cd12" d="M521.135,-192.184C521.376,-184 521.628,-175.433 521.881,-166.834"/>
<ellipse fill="none" stroke="#95cd12" cx="521.014" cy="-196.331" rx="4" ry="4"/>
<polygon fill="#95cd12" stroke="#95cd12" points="521.884,-166.741 526.676,-156.877 522.031,-161.743 522.178,-156.745 522.178,-156.745 522.178,-156.745 522.031,-161.743 517.68,-156.613 521.884,-166.741 521.884,-166.741"/>
</g>
<!-- User -->
<g id="node6" class="node"><title>User</title>
<path fill="none" stroke="black" d="M236.815,-344.5C236.815,-344.5 532.084,-344.5 532.084,-344.5 538.084,-344.5 544.084,-350.5 544.084,-356.5 544.084,-356.5 544.084,-558.5 544.084,-558.5 544.084,-564.5 538.084,-570.5 532.084,-570.5 532.084,-570.5 236.815,-570.5 236.815,-570.5 230.815,-570.5 224.815,-564.5 224.815,-558.5 224.815,-558.5 224.815,-356.5 224.815,-356.5 224.815,-350.5 230.815,-344.5 236.815,-344.5"/>
<text text-anchor="middle" x="384.45" y="-555.3" font-family="Times,serif" font-size="14.00">User</text>
<polyline fill="none" stroke="black" points="224.815,-548.5 544.084,-548.5 "/>
<text text-anchor="start" x="232.815" y="-533.3" font-family="Times,serif" font-size="14.00">id :integer</text>
<text text-anchor="start" x="232.815" y="-519.3" font-family="Times,serif" font-size="14.00">email :character varying(255)</text>
<text text-anchor="start" x="232.815" y="-505.3" font-family="Times,serif" font-size="14.00">encrypted_password :character varying(255)</text>
<text text-anchor="start" x="232.815" y="-491.3" font-family="Times,serif" font-size="14.00">reset_password_token :character varying(255)</text>
<text text-anchor="start" x="232.815" y="-477.3" font-family="Times,serif" font-size="14.00">reset_password_sent_at :timestamp without time zone</text>
<text text-anchor="start" x="232.815" y="-463.3" font-family="Times,serif" font-size="14.00">remember_created_at :timestamp without time zone</text>
<text text-anchor="start" x="232.815" y="-449.3" font-family="Times,serif" font-size="14.00">sign_in_count :integer</text>
<text text-anchor="start" x="232.815" y="-435.3" font-family="Times,serif" font-size="14.00">current_sign_in_at :timestamp without time zone</text>
<text text-anchor="start" x="232.815" y="-421.3" font-family="Times,serif" font-size="14.00">last_sign_in_at :timestamp without time zone</text>
<text text-anchor="start" x="232.815" y="-407.3" font-family="Times,serif" font-size="14.00">current_sign_in_ip :inet</text>
<text text-anchor="start" x="232.815" y="-393.3" font-family="Times,serif" font-size="14.00">last_sign_in_ip :inet</text>
<text text-anchor="start" x="232.815" y="-379.3" font-family="Times,serif" font-size="14.00">created_at :timestamp without time zone</text>
<text text-anchor="start" x="232.815" y="-365.3" font-family="Times,serif" font-size="14.00">updated_at :timestamp without time zone</text>
<text text-anchor="start" x="232.815" y="-351.3" font-family="Times,serif" font-size="14.00">username :character varying(255)</text>
</g>
<!-- User&#45;&gt;Post -->
<g id="edge4" class="edge"><title>User&#45;&gt;Post</title>
<path fill="none" stroke="#9db13c" d="M306.133,-337.574C301.341,-330.298 296.624,-323.134 292.081,-316.237"/>
<ellipse fill="none" stroke="#9db13c" cx="308.43" cy="-341.062" rx="4.00002" ry="4.00002"/>
<polygon fill="#9db13c" stroke="#9db13c" points="291.928,-316.004 290.187,-305.178 289.178,-311.829 286.428,-307.653 286.428,-307.653 286.428,-307.653 289.178,-311.829 282.67,-310.128 291.928,-316.004 291.928,-316.004"/>
</g>
<!-- User&#45;&gt;Token -->
<g id="edge5" class="edge"><title>User&#45;&gt;Token</title>
<path fill="none" stroke="#08004d" d="M462.75,-337.6C469.215,-327.782 475.545,-318.171 481.493,-309.138"/>
<ellipse fill="none" stroke="#08004d" cx="460.47" cy="-341.062" rx="4.00002" ry="4.00002"/>
<polygon fill="#08004d" stroke="#08004d" points="481.571,-309.02 490.829,-303.143 484.321,-304.844 487.071,-300.668 487.071,-300.668 487.071,-300.668 484.321,-304.844 483.313,-298.193 481.571,-309.02 481.571,-309.02"/>
</g>
</g>
</svg>
